<svg xmlns="http://www.w3.org/2000/svg" width="900" height="900" viewBox="0 0 900 900" role="img" aria-labelledby="title desc">
  <title id="title">WeChat QR Placeholder</title>
  <desc id="desc">Placeholder artwork for the WeChat QR code slot.</desc>
  <defs>
    <linearGradient id="bg" x1="0%" x2="100%" y1="0%" y2="100%">
      <stop offset="0%" stop-color="#0f172a"/>
      <stop offset="100%" stop-color="#111827"/>
    </linearGradient>
    <linearGradient id="line" x1="0%" x2="100%" y1="0%" y2="0%">
      <stop offset="0%" stop-color="#d4a745"/>
      <stop offset="100%" stop-color="#06b6d4"/>
    </linearGradient>
  </defs>
  <rect width="900" height="900" rx="56" fill="url(#bg)"/>
  <rect x="72" y="72" width="756" height="756" rx="40" fill="none" stroke="#23314d" stroke-width="2"/>
  <g fill="none" stroke="url(#line)" stroke-width="18" opacity="0.9">
    <path d="M160 160h180v180H160z"/>
    <path d="M560 160h180v180H560z"/>
    <path d="M160 560h180v180H160z"/>
  </g>
  <g fill="#22c55e" opacity="0.85">
    <rect x="220" y="220" width="60" height="60" rx="10"/>
    <rect x="620" y="220" width="60" height="60" rx="10"/>
    <rect x="220" y="620" width="60" height="60" rx="10"/>
    <rect x="410" y="235" width="34" height="34" rx="8"/>
    <rect x="462" y="235" width="34" height="34" rx="8"/>
    <rect x="514" y="235" width="34" height="34" rx="8"/>
    <rect x="410" y="287" width="34" height="34" rx="8"/>
    <rect x="514" y="287" width="34" height="34" rx="8"/>
    <rect x="410" y="339" width="34" height="34" rx="8"/>
    <rect x="462" y="339" width="34" height="34" rx="8"/>
    <rect x="514" y="339" width="34" height="34" rx="8"/>
    <rect x="410" y="420" width="34" height="34" rx="8"/>
    <rect x="462" y="420" width="34" height="34" rx="8"/>
    <rect x="514" y="420" width="34" height="34" rx="8"/>
    <rect x="360" y="500" width="34" height="34" rx="8"/>
    <rect x="412" y="500" width="34" height="34" rx="8"/>
    <rect x="464" y="500" width="34" height="34" rx="8"/>
    <rect x="516" y="500" width="34" height="34" rx="8"/>
    <rect x="568" y="500" width="34" height="34" rx="8"/>
    <rect x="360" y="552" width="34" height="34" rx="8"/>
    <rect x="464" y="552" width="34" height="34" rx="8"/>
    <rect x="568" y="552" width="34" height="34" rx="8"/>
    <rect x="360" y="604" width="34" height="34" rx="8"/>
    <rect x="412" y="604" width="34" height="34" rx="8"/>
    <rect x="464" y="604" width="34" height="34" rx="8"/>
    <rect x="516" y="604" width="34" height="34" rx="8"/>
    <rect x="568" y="604" width="34" height="34" rx="8"/>
    <rect x="410" y="656" width="34" height="34" rx="8"/>
    <rect x="514" y="656" width="34" height="34" rx="8"/>
  </g>
  <text x="450" y="770" fill="#f8fafc" font-family="Arial, sans-serif" font-size="42" text-anchor="middle">WeChat QR Slot</text>
  <text x="450" y="820" fill="#94a3b8" font-family="Arial, sans-serif" font-size="24" text-anchor="middle">assets/wechat-qr.png</text>
</svg>
